<svg viewBox="0 0 733.33331 733.33331" xmlns="http://www.w3.org/2000/svg">
	<path fill="#19B16A" d="M 339.99999,731.81577 C 172.41894,719.33734 34.207989,593.88456 6.021514,428.66665 -36.447895,179.72787 179.67905,-36.396956 428.66665,6.0256474 627.45151,39.894686 761.31718,229.34066 727.3118,428.66665 695.74276,613.71179 527.05442,745.74422 339.99999,731.81577 Z m 6.63884,-107.67446 c 29.46161,-10.01228 49.33756,-28.76948 56.56732,-53.38333 1.89409,-6.44848 2.12862,-24.4913 2.1404,-164.66666 l 0.0132,-157.42466 74.3201,-14.7785 74.3201,-14.7785 0.35466,-37.88332 0.35466,-37.88332 -4.14479,-8.41925 c -5.65405,-11.48502 -14.1357,-17.72074 -27.78145,-20.42497 -6.83056,-1.35364 -122.30059,20.85964 -133.59293,25.69963 -7.74439,3.31931 -14.84125,10.54605 -18.79101,19.1349 l -3.0658,6.66667 -0.35396,163.67867 -0.35396,163.67867 -6.3127,-3.19351 c -44.96913,-22.74922 -108.23698,-8.17277 -132.56908,30.54294 -26.38862,41.98793 2.26829,93.59589 59.19242,106.59907 15.51605,3.54434 44.47893,2.00916 59.70279,-3.16453 z" />
</svg>
