<?xml version="1.0" standalone="no"?>
<!DOCTYPE svg PUBLIC "-//W3C//DTD SVG 20010904//EN"
 "http://www.w3.org/TR/2001/REC-SVG-20010904/DTD/svg10.dtd">
<svg version="1.0" xmlns="http://www.w3.org/2000/svg"
 width="5000.000000pt" height="5000.000000pt" viewBox="0 0 5000.000000 5000.000000"
 preserveAspectRatio="xMidYMid meet">
<metadata>
Created by potrace 1.14, written by Peter Selinger 2001-2017
</metadata>
<g transform="translate(0.000000,5000.000000) scale(0.100000,-0.100000)"
fill="#000000" stroke="none">
<path d="M24500 49994 c-2124 -50 -4065 -328 -6090 -874 -1313 -353 -2698
-861 -3975 -1457 -2379 -1111 -4581 -2600 -6515 -4407 -296 -276 -922 -903
-1184 -1185 -1410 -1518 -2584 -3124 -3564 -4877 -1829 -3271 -2890 -6886
-3121 -10634 -35 -564 -45 -896 -45 -1560 0 -662 10 -993 45 -1560 317 -5160
2217 -10066 5458 -14095 863 -1073 1858 -2119 2871 -3021 2454 -2181 5262
-3836 8365 -4927 2121 -746 4402 -1205 6695 -1346 575 -36 881 -45 1560 -45
679 0 985 9 1560 45 3134 193 6177 966 9005 2286 2375 1109 4578 2598 6505
4398 302 282 926 906 1194 1194 1404 1510 2581 3120 3564 4877 1828 3266 2891
6889 3121 10634 35 564 44 897 44 1555 1 1045 -46 1893 -159 2875 -581 5093
-2720 9878 -6130 13716 -652 734 -1376 1460 -2084 2090 -1819 1617 -3865 2964
-6055 3987 -1274 595 -2664 1104 -3975 1457 -1844 497 -3628 773 -5515 855
-325 14 -1292 26 -1575 19z m1440 -2494 c1013 -46 1798 -127 2765 -285 2340
-383 4701 -1177 6795 -2287 1998 -1060 3766 -2360 5364 -3947 2022 -2008 3631
-4349 4763 -6931 1053 -2401 1675 -4953 1843 -7560 36 -571 44 -830 44 -1485
0 -657 -8 -943 -44 -1495 -217 -3336 -1167 -6557 -2793 -9470 -1853 -3321
-4527 -6130 -7757 -8150 -1875 -1172 -3899 -2055 -6030 -2630 -1435 -388
-2950 -639 -4395 -730 -583 -36 -856 -44 -1495 -44 -1305 0 -2390 86 -3650
290 -2732 442 -5418 1415 -7790 2822 -1428 847 -2674 1778 -3920 2932 -417
386 -1093 1079 -1500 1540 -2324 2627 -3977 5693 -4889 9065 -378 1401 -625
2892 -721 4370 -37 563 -44 823 -44 1495 -1 671 7 920 44 1495 310 4794 2153
9357 5264 13035 1160 1371 2511 2630 3926 3660 1368 996 2734 1781 4265 2452
2028 889 4211 1476 6440 1732 638 74 1144 108 2045 140 181 6 1246 -4 1470
-14z"/>
<path d="M25197 38684 c-4 -885 -10 -3015 -13 -4734 -3 -1719 -9 -3134 -14
-3145 -6 -16 -42 -12550 -40 -14199 l0 -368 -27 7 c-15 3 -48 21 -73 40 -25
18 -67 45 -95 61 -27 15 -72 41 -100 56 -27 16 -70 38 -95 49 -25 11 -68 31
-95 44 -28 13 -63 27 -78 30 -15 4 -27 10 -27 14 0 4 -26 15 -57 25 -32 10
-62 22 -68 26 -5 5 -38 15 -71 24 -34 9 -74 22 -89 30 -16 8 -59 20 -97 27
-37 7 -68 16 -68 20 0 4 -44 15 -97 25 -54 9 -100 20 -103 24 -3 4 -61 15
-130 25 -69 9 -134 20 -145 25 -28 13 -211 29 -403 37 -89 3 -165 10 -168 15
-7 11 -291 11 -298 0 -3 -5 -79 -12 -168 -15 -194 -7 -405 -25 -433 -37 -11
-5 -83 -16 -160 -25 -77 -9 -144 -20 -150 -24 -5 -5 -59 -16 -119 -26 -60 -9
-117 -21 -125 -26 -9 -4 -54 -15 -101 -24 -47 -9 -89 -20 -95 -24 -5 -4 -48
-16 -95 -26 -47 -10 -90 -22 -95 -26 -6 -4 -42 -15 -80 -25 -39 -9 -74 -20
-80 -24 -5 -4 -37 -15 -70 -24 -33 -10 -78 -25 -100 -35 -22 -10 -56 -22 -75
-26 -19 -4 -44 -13 -55 -19 -11 -7 -47 -21 -80 -31 -33 -10 -62 -22 -65 -25
-3 -4 -23 -13 -45 -20 -22 -7 -56 -21 -75 -31 -19 -11 -38 -19 -42 -19 -4 0
-41 -16 -82 -35 -41 -19 -82 -35 -91 -35 -8 0 -15 -4 -15 -8 0 -4 -17 -14 -37
-21 -64 -21 -326 -148 -448 -217 -33 -18 -71 -39 -85 -46 -14 -7 -29 -18 -33
-25 -4 -7 -13 -13 -19 -13 -6 0 -35 -16 -64 -35 -29 -19 -55 -35 -59 -35 -3 0
-29 -17 -58 -38 -29 -21 -64 -45 -79 -53 -38 -20 -155 -103 -264 -186 -51 -40
-96 -73 -99 -73 -9 0 -259 -212 -268 -227 -4 -7 -14 -13 -22 -13 -16 0 -505
-484 -505 -500 0 -6 -18 -29 -40 -53 -63 -65 -190 -224 -190 -236 0 -6 -9 -16
-20 -23 -11 -7 -20 -17 -20 -21 0 -5 -23 -39 -50 -75 -69 -92 -138 -192 -152
-222 -7 -14 -23 -42 -36 -62 -25 -39 -49 -80 -79 -138 -10 -19 -20 -37 -23
-40 -3 -3 -13 -21 -23 -40 -10 -19 -24 -46 -32 -60 -18 -31 -95 -199 -120
-260 -10 -25 -23 -58 -30 -75 -7 -16 -18 -48 -25 -70 -6 -22 -18 -53 -25 -70
-7 -16 -21 -59 -30 -95 -9 -36 -20 -69 -24 -75 -5 -5 -16 -53 -26 -105 -10
-52 -22 -100 -27 -106 -4 -6 -15 -74 -24 -150 -9 -76 -21 -149 -27 -161 -15
-33 -14 -520 1 -535 7 -7 12 -27 12 -46 0 -48 30 -235 40 -247 4 -5 16 -48 26
-95 9 -47 20 -87 24 -90 3 -3 16 -38 29 -77 12 -40 26 -75 32 -78 5 -4 9 -14
9 -23 0 -16 101 -224 120 -247 4 -5 20 -32 35 -60 16 -27 43 -70 62 -95 18
-25 54 -73 80 -108 85 -117 416 -442 450 -442 4 0 14 -9 21 -20 7 -11 16 -20
22 -20 5 0 40 -23 77 -51 37 -28 82 -57 98 -65 52 -26 98 -53 104 -61 3 -5 26
-17 51 -28 25 -11 47 -22 50 -25 3 -3 25 -14 50 -25 25 -11 47 -22 50 -25 3
-3 25 -14 50 -24 44 -18 76 -32 170 -74 25 -11 65 -26 90 -33 25 -7 50 -16 55
-20 6 -4 39 -15 75 -24 36 -9 79 -23 95 -30 17 -6 68 -20 115 -29 47 -10 92
-21 101 -26 8 -4 65 -15 125 -25 60 -9 118 -21 129 -26 22 -10 289 -39 358
-39 24 0 48 -5 55 -12 17 -17 767 -17 784 0 7 7 35 12 63 12 78 0 367 29 390
40 11 5 76 16 145 25 69 9 134 20 145 25 11 5 72 18 135 30 63 11 124 25 135
30 11 5 56 17 100 26 44 9 85 20 90 24 6 4 44 15 85 24 41 10 79 21 85 26 5 4
39 16 75 25 36 9 70 20 75 25 6 5 39 16 75 25 36 9 70 20 75 25 6 4 35 15 65
24 30 10 67 24 82 32 14 8 31 14 38 14 7 0 33 10 59 23 25 13 65 29 89 37 23
7 42 17 42 22 0 4 7 8 15 8 33 0 660 311 685 339 3 3 21 14 40 23 19 10 55 30
80 45 25 16 60 37 79 48 18 11 69 44 113 72 43 29 81 53 84 53 3 0 42 28 87
63 45 34 92 67 104 74 12 6 53 36 90 66 37 30 73 56 79 58 16 5 230 187 262
221 14 16 31 28 38 28 15 0 484 466 484 481 0 6 18 28 40 49 22 21 40 41 40
44 0 4 34 46 75 95 41 48 75 93 75 99 0 6 11 19 25 28 14 9 25 21 25 27 0 5
25 42 55 82 30 39 55 75 55 78 0 4 22 38 48 75 26 37 54 78 61 92 18 37 42 77
84 148 39 64 157 294 157 307 0 4 11 28 24 54 12 26 29 65 36 86 7 22 18 49
25 60 7 11 18 43 25 70 7 28 16 55 20 60 5 6 16 39 25 75 10 36 21 70 26 75 4
6 14 48 23 95 10 47 21 94 26 105 11 24 40 217 40 267 0 19 5 39 12 46 14 14
12 3104 -2 3131 -8 15 -34 16041 -26 16048 6 6 260 -27 281 -36 11 -5 72 -17
135 -27 63 -9 120 -20 125 -24 6 -4 56 -16 113 -25 56 -10 102 -21 102 -25 0
-3 30 -12 68 -19 37 -8 81 -19 97 -26 17 -8 64 -21 105 -31 41 -10 77 -20 80
-24 3 -4 37 -15 75 -25 39 -10 72 -22 75 -25 3 -3 25 -12 50 -19 25 -7 59 -19
75 -26 17 -7 55 -21 85 -31 30 -9 64 -22 75 -29 11 -6 40 -18 65 -26 25 -7 47
-16 50 -19 3 -3 21 -12 40 -19 61 -24 129 -56 350 -166 248 -123 294 -148 373
-198 31 -20 60 -37 63 -37 3 0 29 -16 58 -35 29 -19 56 -35 60 -35 3 0 37 -22
75 -50 38 -27 72 -50 76 -50 3 0 39 -25 80 -55 40 -30 76 -55 80 -55 5 0 15
-7 24 -15 29 -28 169 -135 176 -135 4 0 17 -9 29 -19 115 -103 277 -241 282
-241 11 0 454 -443 454 -453 0 -5 26 -37 58 -71 82 -89 202 -232 202 -242 0
-5 9 -17 20 -29 35 -35 140 -174 140 -185 0 -6 7 -13 15 -16 8 -4 15 -10 15
-15 0 -6 18 -34 40 -63 22 -29 40 -58 40 -64 0 -7 5 -12 10 -12 6 0 14 -10 19
-22 5 -13 21 -38 35 -57 14 -19 26 -41 26 -48 0 -8 7 -16 15 -19 8 -4 15 -10
15 -15 0 -5 12 -28 27 -52 15 -23 34 -53 41 -67 7 -14 28 -52 47 -85 19 -33
42 -76 52 -95 10 -19 20 -37 23 -40 16 -16 109 -200 127 -250 8 -25 18 -47 22
-50 4 -3 15 -25 25 -50 27 -65 56 -130 77 -172 11 -20 19 -42 19 -48 0 -5 9
-29 19 -53 11 -23 28 -67 37 -97 10 -30 23 -64 29 -75 7 -11 18 -42 25 -70 7
-27 17 -55 21 -60 4 -6 17 -51 29 -100 13 -50 26 -92 29 -95 4 -3 15 -43 25
-90 10 -47 21 -89 26 -95 4 -5 15 -52 24 -104 10 -51 21 -101 26 -110 10 -18
40 -194 40 -234 0 -14 4 -27 9 -29 6 -1 17 -73 26 -158 9 -85 20 -164 25 -175
13 -31 30 -268 37 -518 3 -125 10 -230 15 -233 11 -7 11 -151 0 -158 -5 -3
-12 -128 -15 -278 -6 -294 -23 -571 -37 -603 -5 -11 -16 -98 -25 -194 -10 -96
-21 -182 -25 -190 -5 -9 -16 -79 -25 -156 -10 -77 -21 -144 -25 -150 -4 -5
-16 -66 -25 -135 -10 -69 -21 -130 -26 -135 -4 -6 -15 -53 -24 -105 -8 -52
-20 -104 -25 -115 -5 -11 -18 -74 -30 -140 -12 -66 -25 -124 -30 -130 -4 -5
-15 -50 -24 -100 -10 -49 -21 -94 -25 -100 -4 -5 -16 -50 -26 -100 -10 -49
-21 -94 -25 -100 -4 -5 -15 -50 -25 -100 -10 -49 -21 -94 -25 -100 -4 -5 -15
-46 -24 -90 -10 -44 -21 -87 -26 -96 -5 -9 -16 -56 -26 -105 -9 -49 -20 -93
-24 -99 -4 -5 -16 -46 -25 -90 -10 -44 -21 -84 -25 -90 -4 -5 -15 -50 -24 -99
-10 -49 -21 -96 -26 -105 -5 -9 -16 -59 -26 -111 -9 -52 -20 -97 -24 -100 -3
-3 -15 -52 -24 -110 -10 -58 -22 -109 -26 -115 -4 -5 -15 -62 -25 -125 -10
-63 -21 -119 -25 -125 -5 -5 -16 -71 -26 -145 -10 -74 -21 -137 -25 -140 -12
-10 -32 -296 -27 -400 5 -89 9 -113 33 -156 48 -93 100 -124 204 -124 72 0
123 15 160 45 16 14 33 25 38 25 8 0 63 57 63 66 0 2 13 23 30 46 32 44 90
160 90 181 0 7 6 21 13 32 7 11 19 38 26 60 7 22 24 64 37 93 13 29 24 58 24
65 0 7 6 21 14 32 7 11 21 45 31 75 10 30 21 57 24 60 4 3 13 25 20 50 8 25
19 54 26 65 7 11 20 47 30 80 10 33 24 69 31 80 6 11 17 38 24 60 7 22 19 49
26 60 6 11 15 36 19 55 4 19 16 53 27 75 11 22 26 60 34 85 9 25 24 64 35 87
10 24 19 48 19 55 0 7 6 24 13 38 7 14 22 50 32 80 11 30 22 60 26 65 3 6 14
37 25 70 10 33 21 62 24 65 3 3 14 32 24 65 11 33 22 65 26 70 3 6 12 30 19
55 7 25 21 63 31 85 10 22 21 56 25 75 4 19 13 44 20 56 7 11 21 49 30 85 10
35 21 69 25 74 5 6 16 39 25 75 10 36 21 70 26 75 4 6 15 42 24 80 10 39 21
75 26 81 5 6 16 42 25 80 8 38 19 73 24 79 5 6 15 40 24 77 9 37 20 76 25 85
5 10 17 54 27 98 9 44 20 85 24 90 4 6 15 46 24 90 10 44 21 87 26 96 5 9 16
56 25 105 9 49 21 98 26 109 4 11 16 58 24 105 9 47 20 94 25 105 5 11 17 70
26 130 9 61 20 115 24 120 4 6 16 69 26 140 10 72 21 132 24 135 4 3 15 73 24
155 10 83 22 159 27 170 8 20 33 251 45 425 4 52 10 100 14 105 16 21 35 520
34 930 0 409 -17 859 -34 880 -4 6 -10 51 -14 100 -11 156 -37 379 -46 400 -5
11 -16 76 -26 145 -9 69 -20 130 -24 135 -4 6 -11 35 -14 65 -10 76 -26 161
-37 185 -4 11 -15 60 -24 108 -9 49 -20 96 -25 105 -5 10 -16 53 -26 97 -9 44
-20 85 -24 90 -4 6 -16 46 -26 90 -10 44 -21 82 -24 85 -4 3 -15 37 -25 75
-10 39 -21 72 -25 75 -4 3 -15 38 -25 78 -10 39 -22 72 -26 72 -4 0 -10 17
-14 38 -3 20 -15 55 -25 77 -10 22 -26 65 -36 95 -9 30 -23 64 -29 75 -7 11
-19 41 -26 68 -7 26 -16 47 -20 47 -4 0 -10 12 -13 28 -4 15 -18 50 -31 77
-13 28 -33 73 -45 100 -27 63 -244 494 -287 572 -18 32 -42 77 -53 101 -12 23
-24 42 -28 42 -4 0 -13 12 -19 28 -7 15 -30 56 -52 92 -23 36 -48 80 -56 98
-8 17 -20 32 -25 32 -6 0 -10 5 -10 12 0 6 -11 25 -24 42 -13 17 -33 49 -45
71 -24 46 -83 132 -173 255 -35 47 -69 95 -75 108 -7 13 -31 46 -53 72 -22 26
-46 59 -53 72 -15 29 -306 397 -421 533 -14 17 -43 50 -63 75 -21 25 -77 88
-125 141 -49 53 -88 100 -88 104 0 4 -24 33 -54 64 -30 31 -92 97 -138 146
-220 238 -1141 1155 -1160 1155 -4 0 -45 36 -90 79 -172 164 -491 456 -503
461 -7 3 -37 28 -66 56 -30 29 -119 111 -199 185 -304 278 -930 921 -930 954
0 4 -9 17 -21 29 -35 35 -139 173 -139 184 0 5 -7 12 -15 16 -8 3 -15 10 -15
15 0 6 -22 40 -50 77 -27 37 -50 71 -50 76 0 4 -12 26 -26 48 -27 40 -49 79
-81 140 -10 19 -20 37 -23 40 -3 3 -14 25 -25 50 -11 25 -22 47 -25 50 -3 3
-14 25 -25 50 -11 25 -22 47 -25 50 -3 3 -12 25 -19 50 -8 25 -20 54 -26 65
-7 11 -22 54 -34 95 -12 41 -26 82 -30 91 -5 8 -16 49 -26 90 -9 40 -20 81
-25 90 -5 9 -16 56 -25 105 -9 49 -20 96 -24 104 -5 9 -16 74 -26 145 -9 72
-21 137 -25 146 -5 9 -16 90 -26 180 -10 90 -21 166 -24 169 -4 3 -15 84 -25
180 -10 96 -21 180 -25 185 -4 6 -15 73 -25 149 -9 77 -21 146 -25 155 -5 9
-16 59 -25 111 -9 52 -20 104 -25 115 -5 11 -16 56 -25 99 -8 44 -19 84 -24
90 -4 6 -16 47 -26 91 -10 44 -21 82 -25 85 -9 7 -40 121 -40 148 l0 22 -238
0 c-132 0 -333 3 -449 7 l-210 6 -6 -1609z"/>
</g>
</svg>
