<?xml version="1.0" standalone="no"?>
<!DOCTYPE svg PUBLIC "-//W3C//DTD SVG 20010904//EN"
 "http://www.w3.org/TR/2001/REC-SVG-20010904/DTD/svg10.dtd">
<svg version="1.0" xmlns="http://www.w3.org/2000/svg"
 width="5500.000000pt" height="5500.000000pt" viewBox="0 0 5500.000000 5500.000000"
 preserveAspectRatio="xMidYMid meet">
<metadata>
Created by potrace 1.14, written by Peter Selinger 2001-2017
</metadata>
<g transform="translate(0.000000,5500.000000) scale(0.100000,-0.100000)"
fill="#000000" stroke="none">
<path d="M26930 52564 c-2124 -50 -4065 -328 -6090 -874 -1313 -353 -2698
-861 -3975 -1457 -2379 -1111 -4581 -2600 -6515 -4407 -296 -276 -922 -903
-1184 -1185 -1410 -1518 -2584 -3124 -3564 -4877 -1829 -3271 -2890 -6886
-3121 -10634 -35 -564 -45 -896 -45 -1560 0 -662 10 -993 45 -1560 317 -5160
2217 -10066 5458 -14095 863 -1073 1858 -2119 2871 -3021 2454 -2181 5262
-3836 8365 -4927 2121 -746 4402 -1205 6695 -1346 575 -36 881 -45 1560 -45
679 0 985 9 1560 45 3134 193 6177 966 9005 2286 2375 1109 4578 2598 6505
4398 302 282 926 906 1194 1194 1404 1510 2581 3120 3564 4877 1828 3266 2891
6889 3121 10634 35 564 44 897 44 1555 1 1045 -46 1893 -159 2875 -581 5093
-2720 9878 -6130 13716 -652 734 -1376 1460 -2084 2090 -1819 1617 -3865 2964
-6055 3987 -1274 595 -2664 1104 -3975 1457 -1844 497 -3628 773 -5515 855
-325 14 -1292 26 -1575 19z m11130 -7829 c539 -84 1012 -317 1398 -690 452
-436 724 -1014 772 -1637 6 -84 10 -975 10 -2429 l0 -2296 -47 -10 c-27 -6
-2319 -464 -5095 -1019 l-5048 -1009 0 -10485 c0 -7133 -3 -10538 -10 -10650
-147 -2323 -2228 -4267 -5075 -4739 -633 -105 -1366 -131 -2025 -70 -1216 111
-2385 512 -3330 1142 -335 222 -617 454 -896 732 -428 427 -714 820 -961 1319
-255 517 -393 1023 -434 1596 -13 176 -7 512 11 685 93 876 448 1690 1060
2425 136 163 500 527 665 664 840 699 1838 1173 2986 1420 282 61 585 106 944
142 215 21 918 30 1165 15 1157 -71 2241 -380 3185 -909 l160 -89 5 11051 c5
10556 6 11056 23 11156 61 356 170 661 337 941 334 558 861 963 1487 1143 140
40 7880 1590 8045 1611 148 19 521 13 668 -10z"/>
</g>
</svg>
